<?xml version="1.0" encoding="UTF-8" standalone="no"?>
<!-- Created with Inkscape (http://www.inkscape.org/) -->

<svg
   xmlns:dc="http://purl.org/dc/elements/1.1/"
   xmlns:cc="http://creativecommons.org/ns#"
   xmlns:rdf="http://www.w3.org/1999/02/22-rdf-syntax-ns#"
   xmlns:svg="http://www.w3.org/2000/svg"
   xmlns="http://www.w3.org/2000/svg"
   xmlns:sodipodi="http://sodipodi.sourceforge.net/DTD/sodipodi-0.dtd"
   xmlns:inkscape="http://www.inkscape.org/namespaces/inkscape"
   width="128"
   height="128"
   id="svg12166"
   version="1.1"
   inkscape:version="0.47pre4 r22446"
   sodipodi:docname="steelmesh-logo.svg"
   inkscape:export-filename="/development/projects/steelmesh/steelmesh-assets/logo/steelmesh-logo.png"
   inkscape:export-xdpi="337.5"
   inkscape:export-ydpi="337.5">
  <defs
     id="defs12168">
    <inkscape:perspective
       sodipodi:type="inkscape:persp3d"
       inkscape:vp_x="0 : 526.18109 : 1"
       inkscape:vp_y="0 : 1000 : 0"
       inkscape:vp_z="744.09448 : 526.18109 : 1"
       inkscape:persp3d-origin="372.04724 : 350.78739 : 1"
       id="perspective12174" />
    <filter
       inkscape:collect="always"
       id="filter13048">
      <feGaussianBlur
         inkscape:collect="always"
         stdDeviation="1.4"
         id="feGaussianBlur13050" />
    </filter>
  </defs>
  <sodipodi:namedview
     id="base"
     pagecolor="#ffffff"
     bordercolor="#666666"
     borderopacity="1.0"
     inkscape:pageopacity="0.0"
     inkscape:pageshadow="2"
     inkscape:zoom="2.8284271"
     inkscape:cx="72.706534"
     inkscape:cy="20.550301"
     inkscape:document-units="px"
     inkscape:current-layer="layer1"
     showgrid="false"
     inkscape:window-width="995"
     inkscape:window-height="855"
     inkscape:window-x="756"
     inkscape:window-y="207"
     inkscape:window-maximized="0" />
  <metadata
     id="metadata12171">
    <rdf:RDF>
      <cc:Work
         rdf:about="">
        <dc:format>image/svg+xml</dc:format>
        <dc:type
           rdf:resource="http://purl.org/dc/dcmitype/StillImage" />
        <dc:title></dc:title>
      </cc:Work>
    </rdf:RDF>
  </metadata>
  <g
     inkscape:label="Layer 1"
     inkscape:groupmode="layer"
     id="layer1"
     transform="translate(0,-924.36218)">
    <rect
       style="fill:#b3b3b3;fill-opacity:1;stroke:none"
       id="rect13030"
       width="128"
       height="128"
       x="0"
       y="924.36218" />
    <g
       style="stroke:#333333;stroke-width:2.20000000000000018;stroke-miterlimit:4;stroke-dasharray:none;filter:url(#filter13048);opacity:0.99"
       transform="translate(1.428575,0)"
       id="g13032">
      <g
         style="stroke:#333333;stroke-width:2.20000000000000018;stroke-miterlimit:4;stroke-dasharray:none"
         id="g13034">
        <g
           style="stroke:#333333;stroke-width:2.20000000000000018;stroke-miterlimit:4;stroke-dasharray:none"
           id="g13036"
           transform="matrix(0,1,-1,0,1054.5765,927.29074)">
          <path
             id="path13038"
             transform="matrix(0,-1,1,0,-2.92856,1056.0051)"
             d="M 81.5 -6.34375 C 78.73 -6.34375 76.5 -5.5895536 76.5 -4.625 L 76.5 26.5 L 51.5 26.5 L 51.5 14.65625 C 51.5 13.691696 49.27 12.9375 46.5 12.9375 L 30.78125 12.9375 C 28.01125 12.9375 25.78125 13.691696 25.78125 14.65625 L 25.78125 26.5 L -3.90625 26.5 C -4.8708036 26.5 -5.65625 28.73 -5.65625 31.5 L -5.65625 47.21875 C -5.65625 49.98875 -4.8708036 52.21875 -3.90625 52.21875 L 25.78125 52.21875 L 25.78125 75.78125 L 13.96875 75.78125 C 13.004196 75.78125 12.21875 78.01125 12.21875 80.78125 L 12.21875 96.5 C 12.21875 99.27 13.004196 101.5 13.96875 101.5 L 25.78125 101.5 L 25.78125 132.625 C 25.78125 133.58955 28.01125 134.34375 30.78125 134.34375 L 46.5 134.34375 C 49.27 134.34375 51.5 133.58955 51.5 132.625 L 51.5 101.5 L 76.5 101.5 L 76.5 113.34375 C 76.5 114.3083 78.73 115.0625 81.5 115.0625 L 97.21875 115.0625 C 99.98875 115.0625 102.21875 114.3083 102.21875 113.34375 L 102.21875 101.5 L 131.90625 101.5 C 132.8708 101.5 133.65625 99.27 133.65625 96.5 L 133.65625 80.78125 C 133.65625 78.01125 132.8708 75.78125 131.90625 75.78125 L 102.21875 75.78125 L 102.21875 52.21875 L 114.03125 52.21875 C 114.9958 52.21875 115.78125 49.98875 115.78125 47.21875 L 115.78125 31.5 C 115.78125 28.73 114.9958 26.5 114.03125 26.5 L 102.21875 26.5 L 102.21875 -4.625 C 102.21875 -5.5895536 99.98875 -6.34375 97.21875 -6.34375 L 81.5 -6.34375 z M 51.5 52.21875 L 76.5 52.21875 L 76.5 75.78125 L 51.5 75.78125 L 51.5 52.21875 z "
             style="fill:#1a1a1a;fill-opacity:1;stroke:#333333;stroke-width:2.20000000000000018;stroke-linecap:round;stroke-linejoin:round;stroke-miterlimit:4;stroke-opacity:1;stroke-dasharray:none;stroke-dashoffset:0" />
        </g>
        <g
           style="stroke:#333333;stroke-width:2.20000000000000018;stroke-miterlimit:4;stroke-dasharray:none"
           transform="translate(0.78571308,-2.9286143)"
           id="g13040" />
      </g>
      <g
         style="stroke:#333333;stroke-width:2.20000000000000018;stroke-miterlimit:4;stroke-dasharray:none"
         id="g13042"
         transform="matrix(-1,0,0,-1,125.14285,1976.7243)">
        <g
           style="stroke:#333333;stroke-width:2.20000000000000018;stroke-miterlimit:4;stroke-dasharray:none"
           transform="matrix(0,1,-1,0,1054.5765,927.29074)"
           id="g13044" />
        <g
           style="stroke:#333333;stroke-width:2.20000000000000018;stroke-miterlimit:4;stroke-dasharray:none"
           id="g13046"
           transform="translate(0.78571308,-2.9286143)" />
      </g>
    </g>
    <g
       id="g12990"
       transform="translate(1.428575,0)"
       style="stroke:#ffffff;stroke-width:2.2;stroke-miterlimit:4;stroke-dasharray:none">
      <g
         id="g12974"
         style="stroke:#ffffff;stroke-width:2.2;stroke-miterlimit:4;stroke-dasharray:none">
        <g
           transform="matrix(0,1,-1,0,1054.5765,927.29074)"
           id="g12970"
           style="stroke:#ffffff;stroke-width:2.2;stroke-miterlimit:4;stroke-dasharray:none">
          <path
             style="fill:#1a1a1a;fill-opacity:1;stroke:#ffffff;stroke-width:2.2;stroke-linecap:round;stroke-linejoin:round;stroke-miterlimit:4;stroke-opacity:1;stroke-dasharray:none;stroke-dashoffset:0"
             d="M 81.5 -6.34375 C 78.73 -6.34375 76.5 -5.5895536 76.5 -4.625 L 76.5 26.5 L 51.5 26.5 L 51.5 14.65625 C 51.5 13.691696 49.27 12.9375 46.5 12.9375 L 30.78125 12.9375 C 28.01125 12.9375 25.78125 13.691696 25.78125 14.65625 L 25.78125 26.5 L -3.90625 26.5 C -4.8708036 26.5 -5.65625 28.73 -5.65625 31.5 L -5.65625 47.21875 C -5.65625 49.98875 -4.8708036 52.21875 -3.90625 52.21875 L 25.78125 52.21875 L 25.78125 75.78125 L 13.96875 75.78125 C 13.004196 75.78125 12.21875 78.01125 12.21875 80.78125 L 12.21875 96.5 C 12.21875 99.27 13.004196 101.5 13.96875 101.5 L 25.78125 101.5 L 25.78125 132.625 C 25.78125 133.58955 28.01125 134.34375 30.78125 134.34375 L 46.5 134.34375 C 49.27 134.34375 51.5 133.58955 51.5 132.625 L 51.5 101.5 L 76.5 101.5 L 76.5 113.34375 C 76.5 114.3083 78.73 115.0625 81.5 115.0625 L 97.21875 115.0625 C 99.98875 115.0625 102.21875 114.3083 102.21875 113.34375 L 102.21875 101.5 L 131.90625 101.5 C 132.8708 101.5 133.65625 99.27 133.65625 96.5 L 133.65625 80.78125 C 133.65625 78.01125 132.8708 75.78125 131.90625 75.78125 L 102.21875 75.78125 L 102.21875 52.21875 L 114.03125 52.21875 C 114.9958 52.21875 115.78125 49.98875 115.78125 47.21875 L 115.78125 31.5 C 115.78125 28.73 114.9958 26.5 114.03125 26.5 L 102.21875 26.5 L 102.21875 -4.625 C 102.21875 -5.5895536 99.98875 -6.34375 97.21875 -6.34375 L 81.5 -6.34375 z M 51.5 52.21875 L 76.5 52.21875 L 76.5 75.78125 L 51.5 75.78125 L 51.5 52.21875 z "
             transform="matrix(0,-1,1,0,-2.92856,1056.0051)"
             id="rect12972" />
        </g>
        <g
           id="g12960"
           transform="translate(0.78571308,-2.9286143)"
           style="stroke:#ffffff;stroke-width:2.2;stroke-miterlimit:4;stroke-dasharray:none" />
      </g>
      <g
         transform="matrix(-1,0,0,-1,125.14285,1976.7243)"
         id="g12980"
         style="stroke:#ffffff;stroke-width:2.2;stroke-miterlimit:4;stroke-dasharray:none">
        <g
           id="g12982"
           transform="matrix(0,1,-1,0,1054.5765,927.29074)"
           style="stroke:#ffffff;stroke-width:2.2;stroke-miterlimit:4;stroke-dasharray:none" />
        <g
           transform="translate(0.78571308,-2.9286143)"
           id="g12986"
           style="stroke:#ffffff;stroke-width:2.2;stroke-miterlimit:4;stroke-dasharray:none" />
      </g>
    </g>
  </g>
</svg>
